<svg width="206" height="92" viewBox="0 0 206 92" fill="none" xmlns="http://www.w3.org/2000/svg">
<mask id="mask0_163_737" style="mask-type:alpha" maskUnits="userSpaceOnUse" x="0" y="11" width="45" height="28">
<path fill-rule="evenodd" clip-rule="evenodd" d="M5.40846 18.9076C0.590121 22.3477 -1.3028 28.454 0.934288 38.0865C1.02033 37.5705 1.19241 37.1405 1.3645 36.6244C5.49451 24.4979 19.5193 25.7879 29.5862 25.5299C39.7392 25.3579 43.3529 19.0796 44.2994 11.6832C36.2115 18.9076 16.9381 10.7372 5.40846 18.9076Z" fill="#D9D9D9"/>
</mask>
<g mask="url(#mask0_163_737)">
<path d="M44.2741 10.8999H-1.49158V38.4112H44.2741V10.8999Z" fill="url(#paint0_linear_163_737)"/>
</g>
<path d="M71.9568 33.0483V59.3484H85.1068C90.6437 59.3484 93.7582 56.4069 93.7582 51.6487C93.7582 48.5342 92.1144 46.4579 89.519 45.5062V45.3332C91.6819 44.3816 92.8066 42.6513 92.8066 40.2289C92.8066 35.9032 89.7786 33.1348 84.5013 33.1348H71.9568V33.0483ZM77.4937 43.949V37.2875H83.6361C86.145 37.2875 87.4427 38.4986 87.4427 40.575C87.4427 42.6513 86.145 43.8625 83.6361 43.8625H77.4937V43.949ZM77.4937 54.9362V47.7556H84.0687C86.7506 47.7556 88.2213 49.0533 88.2213 51.3026C88.2213 53.552 86.8371 54.8497 84.0687 54.8497H77.4937V54.9362ZM111.84 55.6283C111.32 55.6283 110.974 55.4553 110.974 54.5036V45.6793C110.974 41.9592 108.552 39.3638 102.756 39.3638C98.2569 39.3638 94.9694 41.5266 94.1043 45.2467L98.8625 45.9388C99.4681 43.949 100.939 43.0839 102.669 43.0839C104.832 43.0839 105.784 44.0355 105.784 45.5062C105.784 46.7174 104.832 47.2365 101.198 47.6691C96.1806 48.2747 93.4121 49.8319 93.4121 54.0711C93.4121 57.7046 96.4401 59.8675 99.9872 59.8675C102.323 59.8675 104.745 59.0889 105.957 57.4451H106.13C106.735 59.0889 108.033 59.6945 110.282 59.6945C111.234 59.6945 112.186 59.6079 112.618 59.4349V55.6283C112.445 55.6283 112.099 55.6283 111.84 55.6283ZM105.87 51.7352C105.87 54.9362 103.361 56.2339 101.371 56.2339C99.7276 56.2339 98.6895 55.2823 98.6895 53.725C98.6895 51.9082 100.074 51.0431 101.89 50.7836C103.621 50.524 105.265 50.2645 105.87 49.7454V51.7352ZM117.463 42.3918V39.7963H112.532V59.2619H117.722V48.7938C117.722 45.3332 119.712 43.6029 121.875 43.6029C124.211 43.6029 125.509 44.7276 125.509 47.8421V59.3484H130.699V46.5444C130.699 41.6131 127.585 39.4503 123.865 39.4503C121.096 39.4503 119.02 40.575 117.722 42.4783H117.463V42.3918ZM137.361 53.0329L139.524 50.7836L145.147 59.3484H151.117L142.984 47.323L150.252 39.7963H144.282L137.188 47.323V32.6157H131.997V59.2619H137.188V53.0329H137.361Z" fill="#003399"/>
<path d="M84.9339 0C77.3207 0 72.0433 5.1043 72.0433 13.7557C72.0433 22.407 77.4072 27.5113 84.9339 27.5113C92.547 27.5113 97.8244 22.407 97.8244 13.7557C97.8244 5.1043 92.547 0 84.9339 0ZM84.9339 23.0126C80.6947 23.0126 77.6667 19.9846 77.6667 13.7557C77.6667 7.52668 80.6947 4.4987 84.9339 4.4987C89.173 4.4987 92.201 7.52668 92.201 13.7557C92.201 19.9846 89.173 23.0126 84.9339 23.0126ZM110.109 27.3383C114.954 27.3383 118.588 23.3587 118.588 17.1297C118.588 10.9007 114.954 6.92108 110.023 6.92108C107.427 6.92108 105.265 7.78622 104.053 9.94906H103.88V7.44016H98.949V33.7403H104.14V24.5698H104.313C105.351 26.3866 107.341 27.3383 110.109 27.3383ZM108.552 10.9007C111.494 10.9007 113.31 13.0635 113.31 17.1297C113.31 21.2823 111.407 23.3587 108.552 23.3587C105.697 23.3587 103.794 21.1958 103.794 17.1297C103.794 12.977 105.697 10.9007 108.552 10.9007ZM127.412 23.1856C126.028 23.1856 125.422 22.9261 125.422 21.3688V10.9007H129.488V7.44016H125.422V1.98981H120.231V7.44016H117.117V10.9007H120.231V22.407C120.231 26.3001 122.048 27.4248 125.941 27.4248C127.239 27.4248 128.71 27.1653 129.315 26.9922V23.0126C128.883 23.0126 128.191 23.1856 127.412 23.1856ZM130.094 0.259541V4.67173H135.285V0.259541H130.094ZM130.094 7.44016V26.9057H135.285V7.44016H130.094ZM160.287 6.92108C157.086 6.92108 155.269 8.3053 153.626 10.1221C152.501 7.95925 150.338 6.92108 147.916 6.92108C145.32 6.92108 143.417 8.13227 142.033 9.94906H141.86V7.35365H136.928V26.8192H142.119V16.2645C142.119 12.804 143.936 11.0737 145.926 11.0737C148.089 11.0737 149.3 12.1984 149.3 15.3129V26.8192H154.491V16.2645C154.491 12.804 156.308 11.0737 158.297 11.0737C160.46 11.0737 161.671 12.1984 161.671 15.3129V26.8192H166.862V14.0152C166.862 9.08392 163.834 6.92108 160.287 6.92108ZM181.569 24.3103V26.9057H186.501V7.44016H181.31V18.0813C181.31 21.5419 179.32 23.2721 177.157 23.2721C174.821 23.2721 173.524 22.1475 173.524 19.033V7.44016H168.333V20.2442C168.333 25.1754 171.447 27.3383 175.167 27.3383C177.936 27.3383 180.012 26.2136 181.31 24.3103H181.569V24.3103ZM204.409 12.631C203.803 9.25695 200.343 6.92108 195.844 6.92108C191.259 6.92108 187.539 9.17043 187.539 12.8905C187.539 17.0432 190.826 18.1678 193.941 18.6869L196.104 19.033C198.267 19.379 199.737 19.9846 199.737 21.3688C199.737 23.0126 198.267 23.9643 196.104 23.9643C193.681 23.9643 192.038 22.9261 191.605 20.5902L186.847 21.2823C187.539 25.0889 190.999 27.4248 196.104 27.4248C201.208 27.4248 205.015 25.435 205.015 21.1958C205.015 16.8701 201.641 15.832 198.094 15.2264L196.104 14.8803C194.114 14.5343 192.643 14.1882 192.643 12.7175C192.643 11.2468 193.941 10.3816 195.844 10.3816C197.748 10.3816 199.305 11.4198 199.651 13.3231L204.409 12.631Z" fill="#003399"/>
<path fill-rule="evenodd" clip-rule="evenodd" d="M40.7257 2.33653C55.9521 8.65202 63.1327 26.1278 56.8172 41.3541C50.5018 56.5805 33.026 63.7611 17.7996 57.4457C14.8582 56.2345 12.1763 54.5907 9.92691 52.6009C8.28315 51.0437 6.20682 46.3719 6.7259 42.7384C7.24499 39.1048 13.0414 39.2778 16.5019 40.4025C12.7819 42.3923 14.9447 47.064 22.9904 49.5729C33.8046 52.8604 47.3008 48.6213 52.1455 36.9419C57.4228 24.311 50.8478 9.51715 37.4382 3.98029C24.6342 -1.38355 6.29334 5.79707 0.75647 21.0235C1.01601 20.1583 1.36206 19.2932 1.70812 18.428C8.02361 3.20166 25.4993 -4.06547 40.7257 2.33653Z" fill="#003399"/>
<path opacity="0.15" fill-rule="evenodd" clip-rule="evenodd" d="M9.92672 52.6009C7.33131 49.2268 8.80204 44.8147 11.7435 42.4788C13.1277 41.4406 14.685 40.835 16.5017 40.4025C14.5119 41.5271 14.2524 43.3439 15.7231 45.2472C8.88855 45.5068 9.92672 52.5144 9.92672 52.6009Z" fill="#000066"/>
<path opacity="0.15" fill-rule="evenodd" clip-rule="evenodd" d="M9.92672 52.6009C7.33131 49.2268 8.80204 44.8147 11.7435 42.4788C13.1277 41.4406 14.685 40.835 16.5017 40.4025C15.3771 41.0081 14.7715 41.8732 14.7715 42.8248C8.28296 44.4686 9.06158 51.0436 9.92672 52.6009Z" fill="#000066"/>
<path opacity="0.15" fill-rule="evenodd" clip-rule="evenodd" d="M1.38058 36.6932C5.51587 24.4259 19.5586 25.7217 29.5522 25.5489C39.2874 25.3762 42.9919 19.588 44.1119 12.5905C42.9919 14.7502 41.4412 16.478 39.3735 17.7738C36.9613 19.2425 34.2044 19.9336 31.4476 20.2792C28.4323 20.7111 25.4169 20.7111 22.3155 20.8839C17.491 21.0567 11.8911 21.3158 7.49736 23.6484C2.32825 26.4128 1.03598 31.6826 1.12213 37.2116C1.29443 36.9524 1.29443 36.866 1.38058 36.6932Z" fill="#000066"/>
<mask id="mask1_163_737" style="mask-type:alpha" maskUnits="userSpaceOnUse" x="4" y="26" width="37" height="27">
<path fill-rule="evenodd" clip-rule="evenodd" d="M12.7777 30.5486C3.08122 33.8485 0.397368 44.3562 10.0073 52.6929C7.41002 49.3061 8.88181 44.8773 11.8254 42.5326C19.6172 36.3669 36.9324 45.3983 40.5686 26.2065C33.6425 32.0249 22.3011 27.3355 12.7777 30.5486Z" fill="#D9D9D9"/>
</mask>
<g mask="url(#mask1_163_737)">
<path d="M40.3796 26.2142H0.323792V52.6009H40.3796V26.2142Z" fill="url(#paint1_linear_163_737)"/>
</g>
<path opacity="0.2" fill-rule="evenodd" clip-rule="evenodd" d="M11.8385 42.6223C13.2179 41.5719 14.7697 40.9591 16.5802 40.5214C24.9428 38.7707 37.0127 42.0096 40.2888 26.953C38.4783 29.8418 35.9781 31.8551 32.702 33.0807C30.2018 34.0436 27.443 34.3938 24.7704 34.5688C22.3565 34.7439 19.9425 34.8314 17.6147 35.1816C15.4594 35.4442 13.2179 35.9694 11.3212 37.0199C11.0626 37.195 10.8039 37.2825 10.5453 37.4576C9.3383 38.2454 8.38996 39.2083 7.70026 40.4339C6.75192 42.0971 6.40706 44.023 6.75191 45.9488C7.09677 47.8746 7.9589 49.6254 9.07967 51.2011V51.1135C8.30375 49.1002 8.6486 46.9993 9.59694 45.1609C9.68316 45.0734 9.68316 44.9859 9.76937 44.8983C10.2866 44.023 10.9764 43.2351 11.8385 42.6223Z" fill="#000066"/>
<path d="M0.573756 88.8502V79.9445H1.69632V87.8773H6.59819V88.8502H0.573756ZM7.34501 79.8198H8.43015V81.0172H7.34501V79.8198ZM7.36995 82.2894H8.40521V88.8502H7.36995V82.2894ZM12.3202 88.1393C13.555 88.1393 14.004 87.2163 14.1786 86.6425L15.2513 86.8047C14.9769 87.7277 14.1786 88.9999 12.3202 88.9999C10.5116 88.9999 9.28923 87.6528 9.28923 85.5698C9.28923 83.4869 10.524 82.1398 12.3326 82.1398C14.1661 82.1398 14.8896 83.4245 15.1016 83.9484L14.1163 84.2726C13.9541 83.9109 13.5425 83.0129 12.3326 83.0129C11.1477 83.0129 10.3494 83.9733 10.3494 85.5698C10.3494 87.1788 11.1477 88.1393 12.3202 88.1393ZM20.659 86.8545L21.7192 86.9918C21.4074 87.9397 20.5966 89.0124 18.7631 89.0124C16.9795 89.0124 15.7571 87.6528 15.7571 85.5823C15.7571 83.4993 16.9545 82.1398 18.7631 82.1398C20.5842 82.1398 21.8938 83.5118 21.7691 85.8318H16.8173C16.8548 87.1788 17.6156 88.1393 18.7631 88.1393C19.948 88.1393 20.4719 87.4158 20.659 86.8545ZM18.7631 83.0129C17.6031 83.0129 16.9296 83.9359 16.8298 85.0086H20.6964C20.6091 83.9359 19.9356 83.0129 18.7631 83.0129ZM23.617 83.2249H23.6545C24.0661 82.5514 24.8394 82.1398 25.7374 82.1398C27.0097 82.1398 28.0699 82.8882 28.0699 84.4847V88.8502H27.0222V84.8464C27.0222 83.5492 26.5232 83.0254 25.463 83.0254C24.565 83.0254 23.6669 83.6989 23.6669 85.2081V88.8502H22.6317V82.2894H23.617V83.2249ZM34.0273 83.9982L33.0669 84.1978C32.8922 83.4245 32.1937 82.9755 31.408 82.9755C30.5473 82.9755 29.986 83.3746 29.986 84.0357C29.986 84.6843 30.6097 84.8464 31.3331 84.9711L32.0316 85.0834C33.1542 85.283 34.1894 85.6197 34.1894 86.9793C34.1894 88.3139 33.017 88.9999 31.4953 88.9999C29.8987 88.9999 28.8261 88.1642 28.639 86.9543L29.5994 86.7548C29.774 87.7152 30.5348 88.1767 31.4953 88.1767C32.4307 88.1767 33.1167 87.7526 33.1167 87.0167C33.1167 86.3182 32.4806 86.1186 31.62 85.969L30.934 85.8567C29.9486 85.6821 28.9134 85.3453 28.9134 84.0357C28.9134 82.9256 29.9361 82.1398 31.408 82.1398C32.8049 82.1398 33.8526 83.0004 34.0273 83.9982ZM39.6973 86.8545L40.7575 86.9918C40.4457 87.9397 39.6349 89.0124 37.8014 89.0124C36.0178 89.0124 34.7954 87.6528 34.7954 85.5823C34.7954 83.4993 35.9928 82.1398 37.8014 82.1398C39.6225 82.1398 40.9321 83.5118 40.8074 85.8318H35.8556C35.893 87.1788 36.6539 88.1393 37.8014 88.1393C38.9863 88.1393 39.5102 87.4158 39.6973 86.8545ZM37.8014 83.0129C36.6414 83.0129 35.9679 83.9359 35.8681 85.0086H39.7347C39.6474 83.9359 38.9739 83.0129 37.8014 83.0129ZM44.4265 82.1398C45.362 82.1398 46.1727 82.5763 46.5219 83.2374H46.5594V79.8198H47.6071V88.8502H46.6093V87.8524H46.5718C46.2351 88.5509 45.3869 88.9999 44.4265 88.9999C42.6928 88.9999 41.4704 87.6528 41.4704 85.5698C41.4704 83.4869 42.6928 82.1398 44.4265 82.1398ZM44.6011 88.1393C45.7985 88.1393 46.6342 87.1788 46.6342 85.5698C46.6342 83.9733 45.7985 83.0129 44.6011 83.0129C43.3538 83.0129 42.5306 83.9733 42.5306 85.5698C42.5306 87.1788 43.3538 88.1393 44.6011 88.1393ZM54.1687 82.1398C55.9025 82.1398 57.1248 83.4993 57.1248 85.5698C57.1248 87.6528 55.9025 88.9999 54.1687 88.9999C53.2083 88.9999 52.3602 88.5509 52.0109 87.8524H51.9735V88.8502H50.9881V79.8198H52.0234V83.2374H52.0608C52.4101 82.5763 53.2333 82.1398 54.1687 82.1398ZM53.9941 88.1393C55.2414 88.1393 56.0522 87.1788 56.0522 85.5698C56.0522 83.9733 55.2414 83.0129 53.9941 83.0129C52.7842 83.0129 51.961 83.9733 51.961 85.5698C51.961 87.1788 52.7842 88.1393 53.9941 88.1393ZM63.2899 82.2894L60.7454 88.8627C59.9097 91.033 59.2736 91.3074 58.388 91.3074C58.0388 91.3074 57.8143 91.27 57.6895 91.2575V90.3345C57.7768 90.347 57.939 90.3844 58.2508 90.3844C58.862 90.3844 59.1738 90.1474 59.5979 89.0997L59.7226 88.7879L57.0659 82.2894H58.2134L60.2091 87.5406H60.2465L62.1673 82.2894H63.2899ZM68.7088 87.9646C68.8959 87.9646 69.2077 87.9646 69.3698 87.9522V88.8627C69.2077 88.8752 68.8335 88.8876 68.5092 88.8876C67.3368 88.8876 66.8628 88.5883 66.8628 87.4408V83.1002H65.7776V82.2894H66.8628V80.406H67.9105V82.2894H69.4322V83.1002H67.9105V87.1788C67.9105 87.8274 68.1226 87.9646 68.7088 87.9646ZM71.1957 83.2374H71.2331C71.6447 82.5639 72.418 82.1398 73.2911 82.1398C74.5384 82.1398 75.5986 82.8882 75.5986 84.4847V88.8502H74.5509V84.8464C74.5509 83.5492 74.052 83.0254 72.9918 83.0254C72.1187 83.0254 71.1957 83.7987 71.1957 85.2954V88.8502H70.1479V79.8198H71.1957V83.2374ZM81.2941 86.8545L82.3543 86.9918C82.0425 87.9397 81.2317 89.0124 79.3982 89.0124C77.6146 89.0124 76.3922 87.6528 76.3922 85.5823C76.3922 83.4993 77.5896 82.1398 79.3982 82.1398C81.2192 82.1398 82.5289 83.5118 82.4042 85.8318H77.4524C77.4898 87.1788 78.2507 88.1393 79.3982 88.1393C80.5831 88.1393 81.107 87.4158 81.2941 86.8545ZM79.3982 83.0129C78.2382 83.0129 77.5647 83.9359 77.4649 85.0086H81.3315C81.2442 83.9359 80.5707 83.0129 79.3982 83.0129ZM92.2526 85.8692L93.3877 86.0438C93.0509 87.4907 91.8286 89.0498 89.6084 89.0498C87.2136 89.0498 85.5172 87.2786 85.5172 84.3849C85.5172 81.5286 87.2136 79.7574 89.6084 79.7574C91.7537 79.7574 92.8763 81.2292 93.2255 82.1647L92.1154 82.4017C91.7662 81.5411 90.9305 80.7179 89.6084 80.7179C87.8372 80.7179 86.6648 82.0774 86.6648 84.3849C86.6648 86.7298 87.8372 88.0894 89.6084 88.0894C91.1051 88.0894 91.9533 87.0416 92.2526 85.8692ZM98.9072 86.8545L99.9674 86.9918C99.6556 87.9397 98.8449 89.0124 97.0114 89.0124C95.2277 89.0124 94.0054 87.6528 94.0054 85.5823C94.0054 83.4993 95.2028 82.1398 97.0114 82.1398C98.8324 82.1398 100.142 83.5118 100.017 85.8318H95.0656C95.103 87.1788 95.8638 88.1393 97.0114 88.1393C98.1963 88.1393 98.7202 87.4158 98.9072 86.8545ZM97.0114 83.0129C95.8514 83.0129 95.1778 83.9359 95.0781 85.0086H98.9447C98.8574 83.9359 98.1838 83.0129 97.0114 83.0129ZM101.865 83.2249H101.903C102.314 82.5514 103.088 82.1398 103.986 82.1398C105.258 82.1398 106.318 82.8882 106.318 84.4847V88.8502H105.27V84.8464C105.27 83.5492 104.771 83.0254 103.711 83.0254C102.813 83.0254 101.915 83.6989 101.915 85.2081V88.8502H100.88V82.2894H101.865V83.2249ZM109.745 87.9646C109.932 87.9646 110.244 87.9646 110.406 87.9522V88.8627C110.244 88.8752 109.87 88.8876 109.546 88.8876C108.373 88.8876 107.899 88.5883 107.899 87.4408V83.1002H106.814V82.2894H107.899V80.406H108.947V82.2894H110.469V83.1002H108.947V87.1788C108.947 87.8274 109.159 87.9646 109.745 87.9646ZM112.182 82.2894V83.412H112.22C112.556 82.6512 113.317 82.1398 114.29 82.1398C114.49 82.1398 114.714 82.1647 114.851 82.2021V83.2124C114.714 83.1875 114.465 83.1626 114.228 83.1626C113.093 83.1626 112.232 83.8361 112.232 85.4451V88.8502H111.197V82.2894H112.182ZM120.739 88.8502L119.716 88.8627C119.628 88.7504 119.554 88.4137 119.541 87.9272C119.042 88.738 117.994 89.0124 117.209 89.0124C116.061 89.0124 115.113 88.264 115.113 87.0666C115.113 85.6197 116.273 85.1582 117.882 84.9836C119.217 84.8215 119.516 84.6468 119.516 84.1853C119.516 83.4993 119.092 83.0129 118.019 83.0129C117.308 83.0129 116.585 83.3247 116.323 84.2352L115.363 84.0107C115.662 82.7634 116.747 82.1398 118.057 82.1398C119.865 82.1398 120.564 83.0254 120.564 84.1604V87.341C120.564 88.1143 120.589 88.5135 120.739 88.8502ZM119.516 86.2434V85.3453C119.304 85.5823 118.506 85.6821 117.782 85.7819C117.071 85.8817 116.173 86.206 116.173 87.0666C116.173 87.7651 116.66 88.1517 117.408 88.1517C118.281 88.1517 119.516 87.7152 119.516 86.2434ZM121.6 79.8198H122.635V88.8502H121.6V79.8198ZM126.144 79.9445H129.948C131.632 79.9445 132.567 80.8551 132.567 82.3393C132.567 83.1875 132.181 83.8361 131.395 84.1479V84.1853C132.343 84.4847 132.854 85.1956 132.854 86.3307C132.854 87.8898 131.856 88.8502 130.085 88.8502H126.144V79.9445ZM127.266 83.8111H129.786C130.846 83.8111 131.42 83.3122 131.42 82.3518C131.42 81.3914 130.846 80.905 129.786 80.905H127.266V83.8111ZM127.266 87.8898H129.911C131.07 87.8898 131.707 87.3535 131.707 86.3057C131.707 85.258 131.07 84.7217 129.911 84.7217H127.266V87.8898ZM139.083 88.8502L138.06 88.8627C137.972 88.7504 137.898 88.4137 137.885 87.9272C137.386 88.738 136.338 89.0124 135.553 89.0124C134.405 89.0124 133.457 88.264 133.457 87.0666C133.457 85.6197 134.617 85.1582 136.226 84.9836C137.561 84.8215 137.86 84.6468 137.86 84.1853C137.86 83.4993 137.436 83.0129 136.363 83.0129C135.652 83.0129 134.929 83.3247 134.667 84.2352L133.707 84.0107C134.006 82.7634 135.091 82.1398 136.401 82.1398C138.209 82.1398 138.908 83.0254 138.908 84.1604V87.341C138.908 88.1143 138.933 88.5135 139.083 88.8502ZM137.86 86.2434V85.3453C137.648 85.5823 136.85 85.6821 136.126 85.7819C135.415 85.8817 134.517 86.206 134.517 87.0666C134.517 87.7651 135.004 88.1517 135.752 88.1517C136.625 88.1517 137.86 87.7152 137.86 86.2434ZM140.904 83.2249H140.942C141.353 82.5514 142.126 82.1398 143.025 82.1398C144.297 82.1398 145.357 82.8882 145.357 84.4847V88.8502H144.309V84.8464C144.309 83.5492 143.81 83.0254 142.75 83.0254C141.852 83.0254 140.954 83.6989 140.954 85.2081V88.8502H139.919V82.2894H140.904V83.2249ZM147.385 86.2683V88.8502H146.35V79.8198H147.385V85.0709L150.317 82.2894H151.651L148.957 84.809L151.963 88.8502H150.703L148.234 85.495L147.385 86.2683ZM157.722 82.1398C159.58 82.1398 160.828 83.4869 160.828 85.5698C160.828 87.6528 159.58 88.9999 157.722 88.9999C155.863 88.9999 154.616 87.6528 154.616 85.5698C154.616 83.4869 155.863 82.1398 157.722 82.1398ZM157.722 88.1393C158.944 88.1393 159.755 87.1788 159.755 85.5698C159.755 83.9733 158.944 83.0129 157.722 83.0129C156.5 83.0129 155.676 83.9733 155.676 85.5698C155.676 87.1788 156.5 88.1393 157.722 88.1393ZM164.048 80.5682C163.612 80.5682 163.163 80.643 163.163 81.4039V82.2894H164.685V83.1002H163.163V88.8627H162.115V83.1002H161.03V82.2894H162.115V81.3041C162.115 80.0568 162.888 79.6701 163.899 79.6701C164.273 79.6701 164.672 79.72 164.859 79.7574V80.6181C164.685 80.5931 164.285 80.5682 164.048 80.5682ZM175.021 88.8502H173.823L168.996 81.5535H168.959V88.8502H167.911V79.9445H169.146L173.923 87.1664H173.973V79.9445H175.021V88.8502ZM176.12 79.8198H177.205V81.0172H176.12V79.8198ZM176.145 82.2894H177.18V88.8502H176.145V82.2894ZM184.076 82.2894V88.4137C184.076 90.4842 182.779 91.2949 181.082 91.2949C179.71 91.2949 178.575 90.6962 178.176 89.3367L179.174 89.0997C179.448 90.0726 180.134 90.4343 181.082 90.4343C182.292 90.4343 183.028 89.8231 183.028 88.3513V87.4782H182.991C182.654 88.1018 181.868 88.501 180.958 88.501C179.261 88.501 178.064 87.2412 178.064 85.3204C178.064 83.3995 179.261 82.1398 180.958 82.1398C181.893 82.1398 182.691 82.5514 183.04 83.2249H183.078V82.2894H184.076ZM181.132 87.6528C182.292 87.6528 183.103 86.7173 183.103 85.3204C183.103 83.9359 182.292 83.0129 181.132 83.0129C179.922 83.0129 179.124 83.9359 179.124 85.3204C179.124 86.7173 179.922 87.6528 181.132 87.6528ZM189.787 86.8545L190.847 86.9918C190.535 87.9397 189.724 89.0124 187.891 89.0124C186.107 89.0124 184.885 87.6528 184.885 85.5823C184.885 83.4993 186.082 82.1398 187.891 82.1398C189.712 82.1398 191.022 83.5118 190.897 85.8318H185.945C185.983 87.1788 186.743 88.1393 187.891 88.1393C189.076 88.1393 189.6 87.4158 189.787 86.8545ZM187.891 83.0129C186.731 83.0129 186.057 83.9359 185.958 85.0086H189.824C189.737 83.9359 189.063 83.0129 187.891 83.0129ZM192.745 82.2894V83.412H192.782C193.119 82.6512 193.88 82.1398 194.853 82.1398C195.052 82.1398 195.277 82.1647 195.414 82.2021V83.2124C195.277 83.1875 195.027 83.1626 194.79 83.1626C193.655 83.1626 192.795 83.8361 192.795 85.4451V88.8502H191.759V82.2894H192.745ZM196.059 79.8198H197.144V81.0172H196.059V79.8198ZM196.084 82.2894H197.119V88.8502H196.084V82.2894ZM203.579 88.8502L202.556 88.8627C202.469 88.7504 202.394 88.4137 202.381 87.9272C201.883 88.738 200.835 89.0124 200.049 89.0124C198.901 89.0124 197.954 88.264 197.954 87.0666C197.954 85.6197 199.114 85.1582 200.723 84.9836C202.057 84.8215 202.356 84.6468 202.356 84.1853C202.356 83.4993 201.932 83.0129 200.86 83.0129C200.149 83.0129 199.425 83.3247 199.163 84.2352L198.203 84.0107C198.502 82.7634 199.587 82.1398 200.897 82.1398C202.706 82.1398 203.404 83.0254 203.404 84.1604V87.341C203.404 88.1143 203.429 88.5135 203.579 88.8502ZM202.356 86.2434V85.3453C202.144 85.5823 201.346 85.6821 200.623 85.7819C199.912 85.8817 199.014 86.206 199.014 87.0666C199.014 87.7651 199.5 88.1517 200.249 88.1517C201.122 88.1517 202.356 87.7152 202.356 86.2434Z" fill="#676767"/>
<defs>
<linearGradient id="paint0_linear_163_737" x1="11.7537" y1="6.16406" x2="28.1426" y2="37.5663" gradientUnits="userSpaceOnUse">
<stop stop-color="#003398"/>
<stop offset="1" stop-color="#4DEA8F"/>
</linearGradient>
<linearGradient id="paint1_linear_163_737" x1="28.5263" y1="19.1525" x2="12.5159" y2="58.9818" gradientUnits="userSpaceOnUse">
<stop stop-color="#003398"/>
<stop offset="1" stop-color="#4DEA8F"/>
</linearGradient>
</defs>
</svg>
